<?xml version="1.0" encoding="UTF-8" standalone="no"?>
<!-- Created with Inkscape (http://www.inkscape.org/) -->

<svg
   xmlns:dc="http://purl.org/dc/elements/1.1/"
   xmlns:cc="http://creativecommons.org/ns#"
   xmlns:rdf="http://www.w3.org/1999/02/22-rdf-syntax-ns#"
   xmlns:svg="http://www.w3.org/2000/svg"
   xmlns="http://www.w3.org/2000/svg"
   xmlns:inkscape="http://www.inkscape.org/namespaces/inkscape"
   version="1.1"
   width="400"
   height="160"
   id="svg2"
   xml:space="preserve"><metadata
     id="metadata8"><rdf:RDF><cc:Work
         rdf:about=""><dc:format>image/svg+xml</dc:format><dc:type
           rdf:resource="http://purl.org/dc/dcmitype/StillImage" /></cc:Work></rdf:RDF></metadata><defs
     id="defs6" /><g
     transform="matrix(1.25,0,0,-1.25,0,160)"
     id="g10"><g
       transform="scale(0.1,0.1)"
       id="g12"><path
         d="m 1050.7,795.828 c -0.31,0.973 3.83,8.981 12.5,23.981 8.36,15.351 22.5,32.5 42.5,51.48 10,10.672 31.18,22.352 63.52,35 31.99,12.699 70.78,15.199 116.48,7.5 56.02,-13.32 117.5,-26.129 184.5,-38.469 67.3,-12.66 138.2,-15.672 212.5,-9.031 84.64,8.68 165,33.172 241.01,73.52 75.98,40.351 141.8,97.851 197.5,172.501 16.68,23.01 30.98,46.84 43.01,71.48 11.99,24.69 18.98,44.85 20.98,60.51 -60,-33.32 -126.8,-44.49 -200.51,-33.47 -73.32,10.97 -149.49,25.66 -228.48,43.98 -78.71,18.32 -155.82,21.84 -231.52,10.51 -115,-27.66 -195.82,-69.18 -242.5,-124.49 -46.99,-55.36 -73.48,-95 -79.49,-119.03 -8.01,-19.65 -8.17,-28.831 -0.51,-27.499 7.65,1.019 15.7,4.34 24.02,9.999 77.66,53.67 136.29,88.01 175.98,103.01 39.69,15.35 84.37,25.82 134.02,31.48 79.3,7.7 159.69,6.37 240.98,-3.98 81.36,-10.66 168.2,-5.35 260.51,16.02 -1.33,-2.04 -25.98,-9.85 -73.99,-23.52 -48.01,-13.67 -112.34,-21.68 -193.01,-23.98 -50.31,0.97 -105.19,1.32 -164.49,0.97 -59.33,-0.31 -125,-10 -196.99,-28.98 -93.71,-29.03 -172.85,-69.18 -237.5,-120.511 -64.69,-51.329 -110.82,-96.329 -138.52,-135 -1.01,-2.661 -1.17,-4.649 -0.5,-6.02 3.67,-5 7.69,-10.461 11.99,-16.48 2.34,-2.34 4.37,-2.848 6.01,-1.481"
         inkscape:connector-curvature="0"
         id="path14"
         style="fill:#2b731c;fill-opacity:1;fill-rule:evenodd;stroke:none" /><path
         d="m 0,503.949 c 0.621094,1.563 1.91016,3.36 3.91016,5.473 1.94922,2.187 4.14062,4.406 6.55864,6.719 2.5,2.257 4.9218,4.449 7.3398,6.558 2.5,2.071 4.6914,3.629 6.5703,4.692 2.5703,-1.993 4.7617,-4.45 6.5625,-7.352 1.8672,-2.93 4.0977,-7.93 6.7188,-15 2.5703,-6.988 5.7812,-16.519 9.5312,-28.59 3.75,-11.988 8.668,-28.09 14.8398,-48.277 6.129,-20.121 13.8282,-44.922 23.129,-74.383 9.371,-29.488 20.6988,-64.918 34.0588,-106.25 1.25,0.941 3.59,6.141 7.031,15.633 3.441,9.449 7.578,21.289 12.5,35.469 4.879,14.14 10.16,29.918 15.781,47.339 5.699,17.379 11.328,34.918 16.879,52.661 5.5,17.808 10.781,34.718 15.781,50.781 5.079,16.129 9.411,30.039 12.969,41.719 1.012,4.57 1.75,9.058 2.18,13.437 0.512,4.453 1.25,8.473 2.191,12.031 1.02,3.512 2.739,6.481 5.16,8.903 2.5,2.5 6.637,3.75 12.5,3.75 4.571,1.957 8.789,-0.313 12.649,-6.871 3.949,-6.493 7.969,-15.903 12.039,-28.282 4.062,-12.418 8.32,-26.839 12.812,-43.281 4.571,-16.367 9.719,-33.519 15.469,-51.406 5.699,-17.934 12.07,-35.781 19.059,-53.594 6.953,-17.738 15.191,-33.867 24.691,-48.437 l 68.75,281.25 c 0.699,2.578 1.949,4.687 3.75,6.25 1.75,1.64 3.82,2.5 6.25,2.5 2.5,0 5.039,-1.172 7.649,-3.442 2.582,-2.301 5.043,-6.051 7.351,-11.25 L 344.219,297.391 c 0,-4.301 -0.469,-9.301 -1.41,-15 -0.93,-5.629 -2.258,-11.172 -3.899,-16.563 -1.68,-5.316 -3.558,-9.969 -5.629,-13.906 -2.109,-3.871 -4.531,-6.211 -7.34,-7.031 -2.742,-0.86 -5.742,0.23 -9.062,3.281 -3.25,3.117 -6.649,9.258 -10.16,18.437 -18.239,32.18 -34.528,65.782 -48.91,100.782 -14.289,35 -27.297,72.031 -39.059,111.089 l -62.5,-206.089 c -1.988,-14.301 -4.84,-25.743 -8.59,-34.379 -3.68,-8.672 -7.738,-15.114 -12.191,-19.371 -4.379,-4.141 -8.867,-6.719 -13.438,-7.661 -4.492,-1.011 -8.551,-1.289 -12.191,-0.781 -3.551,0.551 -6.211,1.52 -7.961,2.973 -1.801,1.476 -2.3478,2.5 -1.719,3.117 -7.4998,10.082 -13.9881,22.231 -19.3788,36.41 -5.3124,14.141 -10.2304,29.61 -14.6914,46.41 -4.371,16.75 -8.7109,34.289 -12.9687,52.653 -4.1719,18.437 -8.5899,36.636 -13.2813,54.687 -4.6796,18.129 -10.3086,35.473 -16.871,52.031 C 16.4805,475.039 8.82812,490.199 0,503.949 z M 451.641,226.141 c 0,21.129 -0.43,43.437 -1.25,66.871 -0.743,23.437 -1.52,47.066 -2.34,70.937 -0.86,23.949 -1.102,47.5 -0.781,70.629 0.308,23.121 1.75,44.762 4.371,65 0.699,0.313 2.269,0.5 4.687,0.621 2.383,0.199 4.102,0.313 5.152,0.313 4.571,0 8.211,-0.742 10.942,-2.184 2.808,-1.488 4.219,-4.648 4.219,-9.539 0,-19.289 -0.121,-40.23 -0.313,-62.809 -0.117,-22.621 -0.277,-45.582 -0.469,-68.902 -0.238,-23.25 -0.308,-46.25 -0.308,-69.066 0,-22.731 0.347,-43.364 1.09,-61.871 0.308,-5.629 -0.782,-9.34 -3.282,-11.102 -2.418,-1.75 -5.39,-2.648 -8.91,-2.648 -3.98,0 -7.258,0.898 -9.84,2.648 -2.621,1.762 -3.589,5.473 -2.968,11.102 z M 441.02,575.672 c 0,3.937 1.281,6.558 3.902,7.808 2.578,1.329 5.508,2.032 8.75,2.032 6.449,0 10.508,-2.153 12.187,-6.403 1.641,-4.3 2.5,-9.179 2.5,-14.687 -1.988,-3.563 -4.449,-6.063 -7.339,-7.5 -2.93,-1.481 -5.942,-1.844 -9.071,-1.094 -3.121,0.82 -5.738,2.852 -7.808,6.094 -2.11,3.316 -3.121,7.887 -3.121,13.75 z m 79.531,-334.531 c 2.258,15 3.789,33.668 4.527,56.089 0.82,22.5 1.133,46.45 0.942,71.879 -0.122,25.391 -0.629,51.602 -1.571,78.59 -0.929,27.071 -2.258,52.699 -3.898,76.879 -1.68,24.25 -3.563,45.973 -5.629,65.152 -2.113,19.258 -4.301,34.418 -6.563,45.469 2.891,1.949 5.391,3.52 7.5,4.692 2.192,1.129 4.731,1.718 7.661,1.718 2.261,0 4.21,-0.429 5.781,-1.25 1.64,-0.859 2.969,-2.578 3.898,-5.16 6.571,-63.75 11.02,-128.051 13.442,-192.808 2.5,-64.813 4.379,-129.301 5.629,-193.442 0,-2.929 0,-6.949 0,-12.027 0,-5 -0.161,-7.66 -0.469,-7.973 -4.61,-2.301 -8.711,-3.359 -12.352,-3.121 -3.551,0.192 -6.789,1.172 -9.679,2.961 -2.93,1.762 -5.239,3.789 -6.879,6.102 -1.563,2.257 -2.34,4.371 -2.34,6.25 z m 166.008,64.531 c -3.36,-7.5 -7.5,-16.172 -12.5,-25.942 -5,-9.691 -10.899,-18.98 -17.649,-27.808 -6.68,-8.75 -14.379,-16.25 -23.129,-22.5 -8.75,-6.172 -18.511,-9.223 -29.222,-9.223 -4.918,0 -8.75,0.551 -11.559,1.723 -2.73,1.129 -5.16,2.848 -7.34,5.156 -2.109,2.262 -4.031,5.031 -5.781,8.281 -1.801,3.2 -3.988,6.789 -6.57,10.782 -1.047,15.937 -1.68,33.05 -1.868,51.398 -0.121,18.441 0.821,36.801 2.809,55.16 1.949,18.442 5.309,35.781 10,52.031 4.691,16.329 11.328,30.2 20,41.559 8.629,11.332 19.449,19.461 32.5,24.383 13.012,4.879 28.789,5.187 47.34,0.937 0.941,9.141 1.101,21.403 0.469,36.719 -0.618,15.313 -1.637,31.402 -2.969,48.281 -1.25,16.95 -2.57,33.321 -3.899,49.063 -1.25,15.816 -2.031,28.789 -2.351,38.906 0,2.891 1.332,5.07 4.07,6.563 2.809,1.437 5.82,2.339 9.059,2.648 3.203,0.32 6.41,0.32 9.531,0 3.121,-0.309 5.16,-0.777 6.09,-1.398 -0.621,-40.121 -0.781,-79.45 -0.469,-117.969 0.32,-38.563 0.668,-76.992 1.098,-115.313 0.511,-38.25 1.09,-76.25 1.722,-114.07 0.7,-37.73 1.09,-75.43 1.09,-113.117 0,-3.633 -0.269,-7.5 -0.781,-11.563 -0.43,-4.07 -3.238,-6.097 -8.441,-6.097 -1.989,0 -3.981,0.59 -5.93,1.718 -2,1.168 -3.289,2.891 -3.91,5.161 l -1.41,124.531 z m -21.09,141.558 c -10.117,0.629 -19.489,-3.402 -28.129,-12.031 -8.551,-8.551 -16.012,-19.687 -22.34,-33.437 -6.371,-13.672 -11.52,-28.711 -15.469,-45.153 -3.871,-16.371 -6.211,-32.148 -7.031,-47.347 -0.859,-15.114 0.078,-28.551 2.809,-40.313 2.812,-11.679 7.812,-19.648 15,-23.91 7.191,0 13.832,2.859 20,8.602 6.25,5.699 11.961,12.968 17.191,21.718 5.199,8.832 9.73,18.672 13.59,29.532 3.949,10.937 7.269,21.437 10,31.558 2.82,10.082 4.93,19.262 6.41,27.5 1.449,8.321 2.191,14.61 2.191,18.91 0,3.2 0.149,8.36 0.469,15.469 0.309,7.184 0.149,14.371 -0.469,21.563 -0.632,7.187 -2.031,13.507 -4.222,19.058 -2.11,5.512 -5.43,8.281 -10,8.281 z m 82.582,-206.089 c 2.258,15 3.789,33.668 4.527,56.089 0.82,22.5 1.133,46.45 0.942,71.879 -0.122,25.391 -0.629,51.602 -1.571,78.59 -0.929,27.071 -2.258,52.699 -3.898,76.879 -1.68,24.25 -3.563,45.973 -5.629,65.152 -2.113,19.258 -4.301,34.418 -6.563,45.469 2.891,1.949 5.391,3.52 7.5,4.692 2.192,1.129 4.731,1.718 7.661,1.718 2.261,0 4.21,-0.429 5.781,-1.25 1.64,-0.859 2.969,-2.578 3.898,-5.16 6.571,-63.75 11.02,-128.051 13.442,-192.808 2.5,-64.813 4.379,-129.301 5.629,-193.442 0,-2.929 0,-6.949 0,-12.027 0,-5 -0.161,-7.66 -0.469,-7.973 -4.61,-2.301 -8.711,-3.359 -12.352,-3.121 -3.551,0.192 -6.789,1.172 -9.679,2.961 -2.93,1.762 -5.239,3.789 -6.879,6.102 -1.563,2.257 -2.34,4.371 -2.34,6.25 z m 66.871,-15 c 0,21.129 -0.434,43.437 -1.25,66.871 -0.742,23.437 -1.524,47.066 -2.344,70.937 -0.859,23.949 -1.098,47.5 -0.777,70.629 0.308,23.121 1.75,44.762 4.371,65 0.699,0.313 2.269,0.5 4.687,0.621 2.379,0.199 4.102,0.313 5.161,0.313 4.57,0 8.199,-0.742 10.929,-2.184 2.821,-1.488 4.223,-4.648 4.223,-9.539 0,-19.289 -0.121,-40.23 -0.313,-62.809 -0.121,-22.621 -0.269,-45.582 -0.468,-68.902 -0.231,-23.25 -0.313,-46.25 -0.313,-69.066 0,-22.731 0.352,-43.364 1.094,-61.871 0.308,-5.629 -0.781,-9.34 -3.281,-11.102 -2.422,-1.75 -5.391,-2.648 -8.911,-2.648 -3.98,0 -7.261,0.898 -9.839,2.648 -2.621,1.762 -3.59,5.473 -2.969,11.102 z m -10.621,349.531 c 0,3.937 1.289,6.558 3.898,7.808 2.582,1.329 5.512,2.032 8.75,2.032 6.449,0 10.512,-2.153 12.192,-6.403 1.64,-4.3 2.5,-9.179 2.5,-14.687 -1.993,-3.563 -4.45,-6.063 -7.34,-7.5 -2.93,-1.481 -5.942,-1.844 -9.071,-1.094 -3.121,0.82 -5.742,2.852 -7.808,6.094 -2.113,3.316 -3.121,7.887 -3.121,13.75 z M 912.109,396.449 c -1.25,0 -3.199,-0.59 -5.781,-1.719 -2.617,-1.171 -5.308,-2.46 -8.129,-3.902 -2.73,-1.488 -5.39,-2.887 -7.969,-4.219 -2.609,-1.25 -4.921,-1.879 -6.871,-1.879 -3.238,0 -6.089,0.629 -8.589,1.879 -2.43,1.332 -3.598,3.981 -3.598,7.969 0,3.203 1.488,6.281 4.527,9.211 3.129,2.902 6.762,5.82 10.942,8.75 4.257,2.902 8.519,5.672 12.808,8.289 4.262,2.57 7.352,5.192 9.223,7.813 -0.621,5.187 -1.094,14.918 -1.402,29.218 -0.321,14.371 -0.282,30.782 0.152,49.219 0.508,18.434 1.637,37.383 3.437,56.871 1.871,19.571 4.61,37.071 8.282,52.5 3.75,15.391 8.668,27.5 14.839,36.25 6.25,8.832 14.258,11.641 24.071,8.442 6.871,0 13.039,-2.032 18.59,-6.102 5.507,-4.059 10.199,-9.141 14.058,-15.148 3.949,-6.063 6.961,-12.661 9.071,-19.852 2.07,-7.098 3.12,-13.59 3.12,-19.527 0,-3.242 -0.74,-6.723 -2.19,-10.473 -1.481,-3.75 -4.141,-5.617 -7.97,-5.617 l -1.558,0 c -0.313,0 -0.621,0.156 -0.942,0.469 -7.808,19.879 -14.449,32.5 -19.839,37.808 -5.313,5.391 -9.84,5.512 -13.59,0.313 -3.75,-5.231 -6.879,-14.492 -9.379,-27.813 -2.422,-13.359 -4.453,-28.711 -6.094,-46.09 -1.558,-17.418 -3.047,-35.781 -4.379,-55.16 -1.25,-19.371 -2.5,-37.418 -3.75,-54.058 6.449,1.64 11.879,3.281 16.25,4.839 4.379,1.641 8.321,3.36 11.879,5.161 3.633,1.871 6.91,3.668 9.844,5.468 2.887,1.75 6.168,3.282 9.848,4.532 6.75,3.32 14.289,6.48 22.65,9.531 8.32,3.117 16.41,4.687 24.22,4.687 0,-9.5 -1.72,-17.308 -5.16,-23.437 -3.43,-6.172 -7.89,-11.211 -13.28,-15.16 -5.31,-3.864 -11.399,-6.723 -18.278,-8.59 -6.793,-1.801 -13.711,-3.363 -20.781,-4.692 -6.993,-1.25 -13.551,-2.582 -19.692,-3.902 -6.168,-1.25 -11.519,-2.816 -16.09,-4.687 0.942,-21.25 2.27,-39.852 4.063,-55.782 1.879,-15.937 3.519,-30.121 5,-42.5 1.449,-12.308 2.539,-23.597 3.277,-33.91 0.821,-10.23 0.781,-20.39 -0.148,-30.469 0,-2.3 0.039,-5.468 0.148,-9.531 0.199,-4.058 0.039,-8.09 -0.469,-12.027 -0.429,-3.871 -1.64,-7.192 -3.589,-10 -1.993,-2.731 -5.082,-4.063 -9.219,-4.063 -3.981,0 -6.953,0.903 -8.902,2.653 -1.879,1.758 -3.211,5.386 -3.911,10.937 -1.879,26.332 -3.398,48.75 -4.531,67.192 -1.168,18.437 -2.109,33.898 -2.808,46.398 -0.629,12.5 -0.942,22.352 -0.942,29.539 l 0,22.5 c 0,1.25 -0.156,1.871 -0.469,1.871 z m 148.441,-74.687 c -1.68,-0.313 -4.14,-0.864 -7.35,-1.563 -3.24,-0.621 -6.68,-0.777 -10.31,-0.469 -3.55,0.391 -6.68,1.411 -9.37,2.969 -2.82,1.641 -4.22,4.41 -4.22,8.281 0,2.27 0.54,3.911 1.56,4.848 0.94,1.012 2.58,2.531 4.84,4.531 7.07,5.821 13.13,13.36 18.13,22.653 5.08,9.258 9.72,19.136 13.9,29.687 4.26,10.629 8.75,21.172 13.44,31.723 4.77,10.617 10.24,20.156 16.41,28.59 6.25,8.519 13.9,15.386 22.97,20.629 9.14,5.187 20.39,7.648 33.75,7.339 5.5,0 11.64,-1.332 18.43,-3.902 6.88,-2.617 13.21,-6.18 19.07,-10.629 5.93,-4.371 10.82,-9.648 14.68,-15.777 3.95,-6.172 5.94,-12.973 5.94,-20.473 1.56,-2.621 0,-6.371 -4.69,-11.25 -4.68,-4.918 -11.09,-10.23 -19.21,-15.937 -8.13,-5.621 -17.35,-11.481 -27.66,-17.5 -10.24,-6.051 -20.08,-11.684 -29.53,-16.871 -9.49,-5.243 -17.81,-9.813 -25,-13.75 -7.11,-3.871 -11.8,-6.801 -14.06,-8.75 -1.68,-3.243 -2.97,-6.993 -3.91,-11.25 -0.94,-4.18 -1.68,-8.129 -2.19,-11.879 -0.55,-3.75 -0.9,-7.184 -1.09,-10.313 -0.12,-3.051 -0.16,-5.39 -0.16,-7.027 0,-6.172 -0.27,-12.973 -0.78,-20.473 -0.43,-7.5 -0.08,-14.609 1.09,-21.25 1.14,-6.679 3.79,-12.258 7.97,-16.719 4.26,-4.371 11.45,-6.558 21.57,-6.558 10.7,0 20.78,2.656 30.15,7.969 9.46,5.39 18.28,12.031 26.41,19.839 8.12,7.809 15.51,16.25 22.19,25.309 6.75,9.152 12.81,17.742 18.12,25.789 5.39,8 10.2,14.613 14.38,19.844 4.25,5.187 7.85,7.808 10.78,7.808 3.2,0 6.72,-0.582 10.47,-1.718 3.75,-1.172 5.62,-3.864 5.62,-8.121 0,-5.86 -2.34,-12.813 -7.03,-20.942 -4.69,-8.121 -10.9,-16.801 -18.59,-25.937 -7.62,-9.063 -16.41,-18.082 -26.41,-27.032 -9.92,-8.98 -19.92,-16.992 -30,-24.058 -10.12,-6.992 -20.08,-12.66 -29.84,-17.031 -9.69,-4.379 -18.29,-6.563 -25.79,-6.563 -14.68,0 -25.78,3.512 -33.28,10.621 -7.42,7.192 -12.65,16.129 -15.78,26.879 -3.12,10.82 -4.8,22.344 -5,34.531 -0.12,12.18 -0.31,23.469 -0.62,33.903 z m 89.84,131.879 c -5.55,0 -11.41,-2.743 -17.66,-8.129 -6.17,-5.313 -11.95,-11.832 -17.34,-19.532 -5.31,-7.621 -9.69,-15.429 -13.12,-23.441 -3.44,-7.93 -5.16,-14.488 -5.16,-19.68 4.88,0 11.95,1.871 21.25,5.621 9.26,3.75 18.44,8.36 27.5,13.911 9.14,5.507 17.19,11.328 24.06,17.5 6.88,6.25 10.31,12.109 10.31,17.648 0,2.902 -1.17,5.32 -3.43,7.191 -2.31,1.961 -5,3.598 -8.13,4.848 -3.12,1.32 -6.33,2.344 -9.53,2.961 -3.24,0.711 -6.17,1.102 -8.75,1.102 z m 352.5,-150 c 0,10.39 1.02,24.57 3.13,42.5 2.18,17.89 5.46,37.109 9.84,57.648 4.37,20.512 9.76,41.25 16.25,62.191 6.56,21.02 14.3,40 23.28,56.879 8.95,16.95 19.22,30.821 30.78,41.563 11.56,10.699 24.3,16.09 38.28,16.09 8.13,0 15.04,-1.481 20.78,-4.371 5.71,-2.93 10.47,-6.95 14.22,-12.032 3.75,-5 6.49,-10.711 8.28,-17.031 1.76,-6.367 2.66,-13.289 2.66,-20.789 -5.86,0 -10.59,1.57 -14.22,4.691 -3.55,3.129 -6.79,6.45 -9.69,10 -2.93,3.629 -5.93,6.961 -9.06,10 -3.12,3.129 -7.3,4.692 -12.5,4.692 -10.43,0 -20,-5 -28.75,-15 -8.75,-9.922 -16.72,-22.5 -23.9,-37.813 -7.19,-15.238 -13.56,-32.187 -19.07,-50.937 -5.54,-18.75 -10.15,-36.992 -13.9,-54.692 -3.75,-17.73 -6.64,-33.871 -8.6,-48.441 -1.87,-14.488 -2.81,-25.269 -2.81,-32.34 0,-9.488 0.47,-18.711 1.41,-27.66 0.93,-8.98 3,-17.027 6.25,-24.211 3.32,-7.109 8.04,-12.887 14.22,-17.348 6.25,-4.371 15.03,-6.558 26.4,-6.558 13.01,0 25.94,4.219 38.75,12.656 12.89,8.512 24.88,18.902 35.94,31.094 11.02,12.187 20.62,25.187 28.75,39.058 8.2,13.829 14.1,25.981 17.66,36.411 0.62,0.308 2.07,0.507 4.37,0.621 2.27,0.199 3.75,0.316 4.38,0.316 3.94,0 7.57,-0.43 10.93,-1.25 3.44,-0.859 5.16,-3.867 5.16,-9.066 -1.88,-10.434 -6.41,-21.403 -13.59,-32.973 -7.19,-11.48 -15.71,-22.769 -25.47,-33.898 -9.69,-11.063 -20.43,-21.332 -32.19,-30.782 -11.68,-9.379 -23.09,-17.347 -34.22,-23.91 -11.05,-6.48 -21.33,-10.898 -30.78,-13.277 -9.38,-2.5 -16.99,-2.274 -22.81,0.617 -10.86,0 -20.08,3.012 -27.66,9.07 -7.62,6.012 -13.83,13.43 -18.59,22.18 -4.69,8.75 -8.21,18.172 -10.47,28.289 -2.31,10.07 -3.44,19.371 -3.44,27.813 z m 243.2,-20.469 c -2.3,15 -3.43,29.566 -3.43,43.75 0,14.137 0.86,28.519 2.65,43.117 1.88,14.691 4.46,29.891 7.81,45.633 3.44,15.816 7.43,32.848 12.04,51.09 0,3.636 0.97,6.957 2.96,10 1.96,3.129 4.58,5.707 7.82,7.816 3.2,2.184 6.6,3.902 10.15,5.152 3.64,1.329 7.07,2.032 10.32,2.032 7.18,0 13.67,-2.301 19.53,-6.871 5.82,-4.61 11.09,-10.161 15.78,-16.719 4.76,-6.481 8.9,-13.402 12.34,-20.781 3.44,-7.313 6.25,-13.563 8.44,-18.75 2.58,-11.371 4.45,-24.301 5.62,-38.75 1.14,-14.493 1.26,-29.219 0.32,-44.219 -0.94,-15 -3.24,-29.774 -6.88,-44.223 -3.55,-14.488 -8.59,-27.769 -15.15,-39.84 -6.49,-12 -14.85,-22.031 -25.16,-30.16 -10.23,-8.121 -22.3,-13.199 -36.25,-15.16 -7.5,0 -13.24,2.5 -17.19,7.5 -3.86,5.082 -6.72,11.289 -8.59,18.602 -1.8,7.379 -2.77,14.757 -2.97,22.187 -0.12,7.5 -0.16,13.672 -0.16,18.594 z m 25,1.558 c 0,-3.359 0.04,-6.48 0.16,-9.371 0.2,-2.929 0.51,-5.781 0.94,-8.597 0.51,-2.731 1.17,-5.621 2.03,-8.75 0.82,-3.043 1.87,-6.524 3.12,-10.473 l 2.97,0 c 7.81,0 14.46,2.582 20,7.82 5.51,5.192 10.2,11.911 14.07,20.153 3.94,8.316 7.22,17.578 9.84,27.816 2.58,10.313 4.61,20.391 6.09,30.313 1.45,10 2.42,19.3 2.97,27.968 0.51,8.629 0.78,15.539 0.78,20.782 l 0,9.687 c 0,4.25 -0.23,9.063 -0.62,14.371 -0.32,5.391 -0.9,10.942 -1.72,16.563 -0.74,5.707 -1.95,10.937 -3.6,15.629 -1.56,4.757 -3.67,8.629 -6.24,11.558 -2.62,2.891 -6.06,4.379 -10.32,4.379 -7.18,2.262 -13.36,1.75 -18.44,-1.566 -5,-3.242 -9.06,-8.672 -12.18,-16.25 -3.05,-7.614 -5.39,-16.992 -7.03,-28.121 -1.57,-11.063 -2.58,-23.243 -2.97,-36.563 -0.32,-13.359 -0.39,-27.5 -0.16,-42.5 0.2,-15 0.31,-29.969 0.31,-44.848 z m 129.85,-62.031 c -3.67,43.949 -6.88,87.973 -9.69,132.031 -2.73,44.059 -5.7,89.879 -8.91,137.5 0,7.809 4.22,11.719 12.66,11.719 l 3.91,0 c 0.93,0 2.03,-1.328 3.28,-3.91 1.33,-2.609 2.73,-7.461 4.22,-14.527 1.56,-6.992 3.2,-17.571 5,-31.723 1.75,-14.18 3.94,-32.648 6.56,-55.461 2.58,-22.738 5.51,-51.18 8.75,-85.316 6.87,22.066 12.23,43.519 16.09,64.379 3.95,20.82 8.99,39.757 15.16,56.871 6.25,17.066 14.92,32.109 26.09,45.16 11.25,13.008 27.42,22.656 48.6,28.906 11.75,-2 21.17,-9.066 28.28,-21.25 7.18,-12.187 12.89,-27.269 17.18,-45.156 4.26,-17.934 7.19,-37.422 8.76,-58.442 1.64,-20.941 2.65,-41.05 2.96,-60.308 0.32,-19.184 0.47,-36.371 0.47,-51.563 0,-15.121 0.31,-25.898 0.94,-32.347 -0.94,-2.614 -2.42,-4.922 -4.37,-6.871 -2,-1.993 -4.18,-3.403 -6.57,-4.219 -2.42,-0.742 -4.76,-0.902 -7.03,-0.473 -2.3,0.512 -4.45,2.231 -6.4,5.16 0,3.629 -0.32,10.969 -0.94,22.032 -0.63,11.007 -1.49,23.937 -2.5,38.75 -0.94,14.879 -1.99,30.66 -3.13,47.339 -1.17,16.758 -2.15,32.54 -2.97,47.348 -0.86,14.883 -1.56,27.852 -2.18,38.902 -0.63,11.02 -1.1,18.36 -1.41,22.032 -6.87,11.957 -13.67,18.789 -20.31,20.468 -6.68,1.641 -13.36,-0.468 -20,-6.402 -6.68,-5.859 -13.13,-14.808 -19.38,-26.879 -6.17,-11.988 -11.99,-25.59 -17.5,-40.777 -5.54,-15.121 -10.74,-31.024 -15.62,-47.66 -4.92,-16.563 -9.18,-32.571 -12.82,-47.973 -3.55,-15.43 -6.56,-29.449 -9.06,-42.027 -2.42,-12.5 -3.9,-22.184 -4.53,-29.063 -0.94,-2.301 -2.97,-4.488 -6.09,-6.558 -3.13,-2.11 -6.41,-3.672 -9.85,-4.692 -3.36,-0.937 -6.71,-1.211 -10.15,-0.777 -3.44,0.508 -5.94,2.418 -7.5,5.777 z m 259.22,0.942 c 0,-0.313 3.47,1.597 10.46,5.781 7.08,4.258 15.4,9.879 25,16.867 9.58,6.961 19.42,14.609 29.54,22.973 10.07,8.316 18.36,16.25 24.84,23.75 6.56,7.5 10.04,13.91 10.47,19.218 0.51,5.391 -3.99,8.911 -13.44,10.469 -11.68,1.641 -21.52,1.492 -29.53,-0.469 -7.93,-1.992 -15.16,-4.289 -21.72,-6.871 -6.48,-2.621 -12.58,-5.078 -18.28,-7.347 -5.74,-2.184 -11.99,-2.973 -18.75,-2.34 -14.37,0 -24.3,4.449 -29.69,13.437 -5.31,8.942 -7.97,21.09 -7.97,36.403 0,15.316 3.36,29.847 10.16,43.597 6.87,13.832 15.66,25.821 26.41,35.93 10.82,10.082 23.2,18.172 37.18,24.223 13.95,6.019 28.28,9.066 42.97,9.066 5.82,0 10.86,-0.547 15.16,-1.566 4.26,-0.934 6.41,-4.684 6.41,-11.25 0,-4.492 -2,-8.821 -5.94,-12.973 -3.87,-4.059 -8.24,-6.09 -13.13,-6.09 -0.31,0 -1.17,0.242 -2.5,0.781 -1.25,0.508 -2.58,1.25 -3.9,2.192 -1.25,1.019 -2.58,1.758 -3.91,2.187 -1.25,0.5 -2.11,0.782 -2.5,0.782 -10.43,2.89 -20.55,1.437 -30.31,-4.379 -9.69,-5.864 -18.4,-13.75 -26.1,-23.75 -7.61,-9.922 -13.71,-20.621 -18.28,-32.184 -4.49,-11.566 -6.72,-21.879 -6.72,-30.937 0,-3.672 0.71,-6.532 2.19,-8.602 1.45,-2.098 3.36,-3.668 5.78,-4.68 2.5,-0.937 5.24,-1.531 8.28,-1.718 3.13,-0.121 6.29,-0.161 9.54,-0.161 6.56,0 13.16,0.942 19.84,2.809 6.64,1.961 13.16,4.262 19.53,6.883 6.33,2.578 12.85,4.879 19.53,6.867 6.64,1.961 13.6,2.973 20.78,2.973 3.21,0 6.76,-0.934 10.63,-2.813 3.94,-1.801 7.54,-4.371 10.78,-7.808 3.2,-3.36 5.98,-7.27 8.28,-11.719 2.27,-4.383 3.59,-9.184 3.91,-14.383 1.95,-4.488 1.4,-10.461 -1.72,-17.961 -3.05,-7.5 -7.66,-15.547 -13.91,-24.066 -6.17,-8.434 -13.67,-16.992 -22.5,-25.621 -8.75,-8.563 -17.58,-16.371 -26.41,-23.442 -8.74,-6.988 -17.34,-12.66 -25.78,-17.027 -8.43,-4.383 -15.58,-6.41 -21.4,-6.094 -6.56,0 -10.43,1.992 -11.56,5.934 -1.18,3.867 -1.72,8.207 -1.72,13.129 z m 268.04,49.371 c -1.25,-3.981 -4.45,-9.293 -9.53,-15.934 -5,-6.68 -10.94,-13.359 -17.81,-20 -6.88,-6.68 -13.98,-12.578 -21.25,-17.656 -7.31,-5 -13.71,-7.5 -19.22,-7.5 -10.43,0 -18.98,4.84 -25.62,14.527 -6.68,9.77 -11.84,22.34 -15.47,37.66 -3.56,15.313 -6.02,32.34 -7.35,51.09 -1.25,18.75 -2.03,37.031 -2.34,54.84 -0.31,17.902 -0.47,34.223 -0.47,48.91 0,14.692 -0.55,25.699 -1.56,33.129 1.33,3.32 3.04,5.313 5.15,5.934 2.07,0.629 4.57,0.937 7.5,0.937 2.58,0 4.93,-0.308 7.04,-0.937 2.18,-0.621 4.1,-2.614 5.78,-5.934 0,-3.558 0.04,-9.539 0.15,-17.969 0.2,-8.437 0.63,-17.968 1.25,-28.597 0.63,-10.621 1.25,-21.723 1.88,-33.282 0.7,-11.48 1.29,-22.421 1.72,-32.808 0.5,-10.434 1.01,-19.813 1.56,-28.133 0.51,-8.348 0.94,-14.449 1.25,-18.277 0.31,-2.301 0.66,-6.051 1.09,-11.25 0.51,-5.231 1.33,-10.703 2.5,-16.403 1.14,-5.75 2.58,-10.898 4.38,-15.468 1.76,-4.493 4.14,-6.879 7.19,-7.192 4.76,0 9.68,2.071 14.68,6.25 5.08,4.262 10.08,9.61 15,16.09 4.89,6.57 9.42,13.75 13.6,21.57 4.25,7.813 8.12,15.352 11.56,22.653 3.44,7.386 6.02,13.988 7.81,19.847 1.76,5.821 2.81,10.039 3.13,12.653 0.7,5.508 1.4,13.359 2.03,23.597 0.62,10.313 1.09,21.289 1.4,32.969 0.32,11.75 0.55,22.852 0.79,33.281 0.19,10.391 0.31,18.36 0.31,23.903 l 26.72,-1.403 c 0.39,-26.371 0.23,-50.238 -0.47,-71.57 -0.63,-21.359 -0.78,-41.398 -0.47,-60.148 0.31,-18.672 1.76,-36.801 4.37,-54.379 2.58,-17.5 7.35,-35.742 14.22,-54.684 -0.93,-0.937 -2.93,-2.269 -5.93,-4.066 -2.93,-1.871 -5,-2.813 -6.25,-2.813 -8.13,0 -13.6,2.742 -16.41,8.129 -2.73,5.391 -4.49,11.75 -5.31,19.063 -0.86,7.257 -1.53,14.57 -2.03,21.871 -0.43,7.386 -2.62,13.207 -6.57,17.5 z m 80.63,-31.871 c 2.26,15 3.79,33.668 4.53,56.089 0.82,22.5 1.13,46.45 0.94,71.879 -0.12,25.391 -0.63,51.602 -1.57,78.59 -0.93,27.071 -2.26,52.699 -3.9,76.879 -1.68,24.25 -3.56,45.973 -5.63,65.152 -2.11,19.258 -4.29,34.418 -6.56,45.469 2.89,1.949 5.39,3.52 7.5,4.692 2.19,1.129 4.73,1.718 7.66,1.718 2.26,0 4.22,-0.429 5.78,-1.25 1.64,-0.859 2.97,-2.578 3.9,-5.16 6.57,-63.75 11.02,-128.051 13.44,-192.808 2.5,-64.813 4.38,-129.301 5.63,-193.442 0,-2.929 0,-6.949 0,-12.027 0,-5 -0.16,-7.66 -0.47,-7.973 -4.61,-2.301 -8.71,-3.359 -12.35,-3.121 -3.55,0.192 -6.79,1.172 -9.68,2.961 -2.93,1.762 -5.24,3.789 -6.88,6.102 -1.56,2.257 -2.34,4.371 -2.34,6.25 z m 72.26,183.589 c -3.36,-1.558 -6.4,-3.281 -9.21,-5.152 -2.74,-1.797 -5.4,-3.398 -7.97,-4.848 -2.62,-1.48 -5.24,-2.5 -7.82,-3.121 -2.57,-0.629 -5.35,-0.629 -8.28,0 -1.95,0 -3.59,1.172 -4.84,3.59 -1.33,2.5 -2.38,5.242 -3.13,8.281 -0.82,3.129 -1.4,6.25 -1.72,9.379 -0.39,3.121 -0.39,5.469 0,7.032 l 46.88,26.871 2.81,125 c 0.71,4.258 3.32,5.976 7.81,5.16 4.58,-0.863 9.3,-1.883 14.22,-3.133 0.63,0 1.64,-0.269 3.13,-0.777 1.44,-0.543 2.54,-0.934 3.28,-1.25 -0.74,-8.75 -1.52,-18.282 -2.34,-28.59 -0.75,-10.231 -1.49,-20.473 -2.19,-30.781 -0.63,-10.243 -1.06,-20.243 -1.25,-30 -0.12,-9.692 0.35,-18.442 1.41,-26.25 l 73.12,20.468 c 1.33,0.313 2.38,-0.629 3.12,-2.82 0.83,-2.098 1.65,-4.598 2.5,-7.5 0.83,-2.93 1.41,-5.848 1.72,-8.75 0.32,-2.93 0.47,-4.367 0.47,-4.367 l -82.97,-35.16 c 0,-2.934 0.2,-9.961 0.63,-21.09 0.51,-11.063 1.09,-24.141 1.72,-39.223 0.7,-15.121 1.4,-31.41 2.03,-48.91 0.62,-17.418 1.25,-33.59 1.87,-48.59 0.71,-14.918 1.25,-27.969 1.57,-39.219 0.31,-11.25 0.46,-18.359 0.46,-21.25 -0.62,-9.761 -3.51,-14.691 -8.59,-14.691 -5,0 -10.43,2.473 -16.25,7.352 l -12.19,212.339 z m 129.3,-198.589 c 0,21.129 -0.43,43.437 -1.25,66.871 -0.74,23.437 -1.52,47.066 -2.34,70.937 -0.86,23.949 -1.1,47.5 -0.78,70.629 0.31,23.121 1.75,44.762 4.37,65 0.7,0.313 2.27,0.5 4.69,0.621 2.38,0.199 4.1,0.313 5.15,0.313 4.57,0 8.21,-0.742 10.94,-2.184 2.81,-1.488 4.22,-4.648 4.22,-9.539 0,-19.289 -0.12,-40.23 -0.31,-62.809 -0.12,-22.621 -0.28,-45.582 -0.47,-68.902 -0.23,-23.25 -0.31,-46.25 -0.31,-69.066 0,-22.731 0.35,-43.364 1.09,-61.871 0.31,-5.629 -0.78,-9.34 -3.28,-11.102 -2.42,-1.75 -5.39,-2.648 -8.91,-2.648 -3.98,0 -7.26,0.898 -9.84,2.648 -2.62,1.762 -3.59,5.473 -2.97,11.102 z m -10.62,349.531 c 0,3.937 1.28,6.558 3.9,7.808 2.58,1.329 5.51,2.032 8.75,2.032 6.45,0 10.51,-2.153 12.19,-6.403 1.64,-4.3 2.5,-9.179 2.5,-14.687 -1.99,-3.563 -4.45,-6.063 -7.34,-7.5 -2.93,-1.481 -5.94,-1.844 -9.07,-1.094 -3.12,0.82 -5.74,2.852 -7.81,6.094 -2.11,3.316 -3.12,7.887 -3.12,13.75 z m 89.84,-352.973 c -3.67,43.949 -6.88,87.973 -9.69,132.031 -2.73,44.059 -5.7,89.879 -8.9,137.5 0,7.809 4.21,11.719 12.65,11.719 l 3.91,0 c 0.94,0 2.03,-1.328 3.28,-3.91 1.33,-2.609 2.73,-7.461 4.22,-14.527 1.56,-6.992 3.2,-17.571 5,-31.723 1.76,-14.18 3.94,-32.648 6.56,-55.461 2.58,-22.738 5.51,-51.18 8.75,-85.316 6.88,22.066 12.23,43.519 16.09,64.379 3.95,20.82 8.99,39.757 15.16,56.871 6.25,17.066 14.92,32.109 26.09,45.16 11.25,13.008 27.43,22.656 48.6,28.906 11.76,-2 21.17,-9.066 28.28,-21.25 7.19,-12.187 12.89,-27.269 17.19,-45.156 4.25,-17.934 7.18,-37.422 8.75,-58.442 1.64,-20.941 2.65,-41.05 2.97,-60.308 0.31,-19.184 0.46,-36.371 0.46,-51.563 0,-15.121 0.32,-25.898 0.94,-32.347 -0.94,-2.614 -2.42,-4.922 -4.37,-6.871 -2,-1.993 -4.18,-3.403 -6.57,-4.219 -2.42,-0.742 -4.76,-0.902 -7.03,-0.473 -2.3,0.512 -4.45,2.231 -6.4,5.16 0,3.629 -0.32,10.969 -0.94,22.032 -0.63,11.007 -1.49,23.937 -2.5,38.75 -0.94,14.879 -1.99,30.66 -3.13,47.339 -1.17,16.758 -2.14,32.54 -2.96,47.348 -0.86,14.883 -1.57,27.852 -2.19,38.902 -0.63,11.02 -1.1,18.36 -1.41,22.032 -6.87,11.957 -13.67,18.789 -20.31,20.468 -6.68,1.641 -13.36,-0.468 -20,-6.402 -6.68,-5.859 -13.13,-14.808 -19.38,-26.879 -6.17,-11.988 -11.99,-25.59 -17.5,-40.777 -5.54,-15.121 -10.74,-31.024 -15.62,-47.66 -4.92,-16.563 -9.18,-32.571 -12.81,-47.973 -3.56,-15.43 -6.57,-29.449 -9.07,-42.027 -2.42,-12.5 -3.9,-22.184 -4.53,-29.063 -0.93,-2.301 -2.97,-4.488 -6.09,-6.558 -3.13,-2.11 -6.41,-3.672 -9.84,-4.692 -3.36,-0.937 -6.72,-1.211 -10.16,-0.777 -3.44,0.508 -5.94,2.418 -7.5,5.777 z M 3043.98,25.3594 c 28.64,1.6797 51.18,9.1797 67.66,22.5 16.45,13.3594 28.75,30.582 36.88,51.7187 8.12,21.1719 12.96,45.3129 14.53,72.4999 1.64,27.184 1.79,55.231 0.47,84.211 -1.25,28.949 -3.13,58.012 -5.63,87.191 -2.42,29.141 -3.44,56.25 -3.12,81.25 -13.99,-40.941 -27.15,-74.058 -39.54,-99.371 -12.42,-25.238 -23.9,-44.3 -34.53,-57.187 -10.54,-12.813 -20.11,-20.633 -28.75,-23.442 -8.55,-2.73 -16.09,-2.191 -22.65,1.559 -6.49,3.75 -11.72,9.77 -15.78,18.133 -4.07,8.316 -6.96,16.867 -8.6,25.617 0.63,15 3.6,31.492 8.91,49.539 5.39,18.121 12.42,35.863 21.09,53.281 8.63,17.379 18.63,33.629 30,48.75 11.45,15.192 23.48,27.071 36.1,35.621 12.69,8.629 25.86,13.211 39.53,13.75 13.75,0.508 26.95,-4.8 39.68,-15.941 0.32,-0.309 0.86,-4.641 1.72,-12.961 0.82,-8.25 1.76,-19.137 2.82,-32.656 1.13,-13.563 2.42,-28.711 3.9,-45.473 1.56,-16.679 2.97,-33.59 4.22,-50.777 1.33,-17.113 2.5,-33.442 3.44,-49.063 0.94,-15.629 1.91,-29.14 2.97,-40.468 1.25,-18.563 0.47,-38.2 -2.35,-59.063 -2.73,-20.816 -6.99,-41.098 -12.81,-60.789 -5.86,-19.68 -13.24,-38.1601 -22.19,-55.4609 -8.98,-17.2695 -19.22,-31.4492 -30.78,-42.5 -11.56,-11.0195 -24.45,-18.04685 -38.59,-21.09763 -14.18,-3.12109 -29.22,-0.62109 -45.16,7.50003 -1.05,0 -2.58,0.1211 -4.53,0.3086 -1.87,0.1211 -3.4,0.7109 -4.53,1.7226 -1.17,0.9375 -1.41,2.2695 -0.78,3.9102 0.7,1.5586 2.85,3.9765 6.4,7.1875 z M 3030.23,293.48 c 3.32,-10.121 7.66,-15.269 12.97,-15.468 5.39,-0.114 11.18,3.316 17.35,10.316 6.25,6.953 13,16.793 20.31,29.531 7.26,12.692 14.53,26.481 21.72,41.403 7.19,15 14.26,30.386 21.25,46.25 6.95,15.816 13.51,30.547 19.69,44.218 0,3.52 -0.86,6.879 -2.5,10 -1.57,3.129 -5.12,3.989 -10.63,2.661 -9.06,-1.993 -17.93,-6.411 -26.56,-13.282 -8.67,-6.8 -16.68,-15.16 -24.06,-25.16 -7.31,-9.918 -13.99,-20.777 -20,-32.66 -5.94,-11.867 -11.18,-23.75 -15.63,-35.617 -4.37,-11.883 -7.81,-23.203 -10.31,-33.91 -2.42,-10.742 -3.6,-20.153 -3.6,-28.282"
         inkscape:connector-curvature="0"
         id="path16"
         style="fill:#679a38;fill-opacity:1;fill-rule:nonzero;stroke:none" /></g></g></svg>