<svg xmlns="http://www.w3.org/2000/svg" version="1.1" xmlns:xlink="http://www.w3.org/1999/xlink" xmlns:svgjs="http://svgjs.dev/svgjs" width="1080" height="1080"><svg xmlns="http://www.w3.org/2000/svg" xmlns:xlink="http://www.w3.org/1999/xlink" version="1.1" width="1080" height="1080" viewBox="0 0 1080 1080" xml:space="preserve">
<desc>Created with Fabric.js 5.2.4</desc>
<defs>
</defs>
<g transform="matrix(1 0 0 1 540 540)" id="SvgjsG1005">
<rect style="stroke: none; stroke-width: 1; stroke-dasharray: none; stroke-linecap: butt; stroke-dashoffset: 0; stroke-linejoin: miter; stroke-miterlimit: 4; fill: rgb(81,56,56); fill-rule: nonzero; opacity: 1; visibility: hidden;" vector-effect="non-scaling-stroke" x="-540" y="-540" rx="0" ry="0" width="1080" height="1080"></rect>
</g>
<g transform="matrix(1 0 0 1 540 540)" id="SvgjsG1004">
</g>
<g transform="matrix(0.87 0 0 -0.87 540 574.93)" id="SvgjsG1003">
<path style="stroke: none; stroke-width: 1; stroke-dasharray: none; stroke-linecap: butt; stroke-dashoffset: 0; stroke-linejoin: miter; stroke-miterlimit: 4; fill: rgb(43,115,28); fill-rule: evenodd; opacity: 1;" vector-effect="non-scaling-stroke" transform=" translate(-1608.75, -1033.44)" d="M 1050.7 795.828 C 1050.39 796.8009999999999 1054.53 804.809 1063.2 819.809 C 1071.56 835.16 1085.7 852.309 1105.7 871.289 C 1115.7 881.961 1136.88 893.641 1169.22 906.289 C 1201.21 918.9879999999999 1240 921.4879999999999 1285.7 913.789 C 1341.72 900.4689999999999 1403.2 887.66 1470.2 875.3199999999999 C 1537.5 862.66 1608.4 859.6479999999999 1682.7 866.289 C 1767.3400000000001 874.9689999999999 1847.7 899.461 1923.71 939.809 C 1999.69 980.16 2065.51 1037.6599999999999 2121.21 1112.31 C 2137.89 1135.32 2152.19 1159.1499999999999 2164.2200000000003 1183.79 C 2176.21 1208.48 2183.2000000000003 1228.6399999999999 2185.2000000000003 1244.3 C 2125.2000000000003 1210.98 2058.4 1199.81 1984.6900000000003 1210.83 C 1911.3700000000003 1221.8 1835.2000000000003 1236.49 1756.2100000000003 1254.81 C 1677.5000000000002 1273.1299999999999 1600.3900000000003 1276.6499999999999 1524.6900000000003 1265.32 C 1409.6900000000003 1237.6599999999999 1328.8700000000003 1196.1399999999999 1282.1900000000003 1140.83 C 1235.2000000000003 1085.47 1208.7100000000003 1045.83 1202.7000000000003 1021.8 C 1194.6900000000003 1002.15 1194.5300000000002 992.9689999999999 1202.1900000000003 994.3009999999999 C 1209.8400000000004 995.3199999999999 1217.8900000000003 998.641 1226.2100000000003 1004.3 C 1303.8700000000003 1057.97 1362.5000000000002 1092.31 1402.1900000000003 1107.31 C 1441.8800000000003 1122.6599999999999 1486.5600000000004 1133.1299999999999 1536.2100000000003 1138.79 C 1615.5100000000002 1146.49 1695.9000000000003 1145.1599999999999 1777.1900000000003 1134.81 C 1858.5500000000002 1124.1499999999999 1945.3900000000003 1129.46 2037.7000000000003 1150.83 C 2036.3700000000003 1148.79 2011.7200000000003 1140.98 1963.7100000000003 1127.31 C 1915.7000000000003 1113.6399999999999 1851.3700000000003 1105.6299999999999 1770.7000000000003 1103.33 C 1720.3900000000003 1104.3 1665.5100000000002 1104.6499999999999 1606.2100000000003 1104.3 C 1546.8800000000003 1103.99 1481.2100000000003 1094.3 1409.2200000000003 1075.32 C 1315.5100000000002 1046.29 1236.3700000000003 1006.1399999999999 1171.7200000000003 954.809 C 1107.0300000000002 903.48 1060.9000000000003 858.48 1033.2000000000003 819.809 C 1032.1900000000003 817.148 1032.0300000000002 815.16 1032.7000000000003 813.789 C 1036.3700000000003 808.789 1040.3900000000003 803.328 1044.6900000000003 797.309 C 1047.0300000000002 794.9689999999999 1049.0600000000002 794.461 1050.7000000000003 795.828" stroke-linecap="round"></path>
</g>
</svg><style>@media (prefers-color-scheme: light) { :root { filter: none; } }
@media (prefers-color-scheme: dark) { :root { filter: none; } }
</style></svg>